G75*
G70*
%OFA0B0*%
%FSLAX24Y24*%
%IPPOS*%
%LPD*%
%AMOC8*
5,1,8,0,0,1.08239X$1,22.5*
%
%ADD10R,0.0354X0.0276*%
%ADD11R,0.0276X0.0354*%
%ADD12R,0.0217X0.0472*%
%ADD13R,0.0748X0.0433*%
%ADD14R,0.0630X0.0551*%
%ADD15R,0.0250X0.0500*%
%ADD16R,0.0500X0.0250*%
D10*
X004494Y005576D03*
X004494Y006087D03*
X008494Y004437D03*
X008494Y003926D03*
D11*
X007750Y007181D03*
X007238Y007181D03*
D12*
X009120Y008170D03*
X009868Y008170D03*
X009868Y009193D03*
X009494Y009193D03*
X009120Y009193D03*
X003868Y009193D03*
X003494Y009193D03*
X003120Y009193D03*
X003120Y008170D03*
X003868Y008170D03*
D13*
X006366Y008079D03*
X006366Y008984D03*
X007822Y008984D03*
X007822Y008079D03*
D14*
X004994Y008130D03*
X004994Y009233D03*
X010994Y009233D03*
X010994Y008130D03*
D15*
X005706Y003764D03*
X006061Y003764D03*
X006415Y003764D03*
X006769Y003764D03*
X007124Y003764D03*
X007281Y006599D03*
X006927Y006599D03*
X006573Y006599D03*
X006218Y006599D03*
X005864Y006599D03*
D16*
X005077Y005969D03*
X005077Y005614D03*
X005077Y005260D03*
X005077Y004906D03*
X005077Y004551D03*
X007911Y004394D03*
X007911Y004748D03*
X007911Y005103D03*
X007911Y005457D03*
X007911Y005811D03*
M02*
