%
M48
M72
T01C0.0200
T02C0.0400
%
T01
X3494Y6181
X3494Y7681
X6494Y7181
X9994Y7181
X10044Y4381
T02
X1494Y1181
X1494Y2181
X1494Y3181
X1494Y4181
X1494Y5181
X1494Y6181
X1494Y7181
X1494Y8181
X1494Y9181
X12494Y9181
X12494Y8181
X12494Y7181
X12494Y6181
X12494Y5181
X12494Y4181
X12494Y3181
X12494Y2181
X12494Y1181
M30
